<svg xmlns="http://www.w3.org/2000/svg" width="164" height="141" fill="none"><path fill="#8C7575" d="M97.518 139.319c-25.579 1.438-41.166-8.926-45.762-14.388-2.558-5.276-2.664-10.258-2.398-11.99 1.12 1.119 2.332 2.265 3.397 3.997-1.798-10.791-8.06-18.984-12.19-22.781.64-1.919 5.995-8.793 9.792-9.592.8 2.718.733 4.463.6 4.996 13.269-23.34 16.32-28.377 16.186-27.577 6.994 1.399-1.998 14.787-4.996 21.182 11.191-2.398 19.318-17.185 21.982-23.38 3.357 6.554.266 20.116-1.399 24.779 15.187.16 32.04-18.851 38.568-28.376 1.598 2.398 2.597 1.598 1.199 10.59-1.439 3.518-1.999 4.264-1.599 4.597 5.116-2.398 6.728-2.798 7.194-2.798-1.759 3.198-2.531 8.793-2.998 11.39 2.201 0 3.229-.257 3.77-.392l.027-.007c.8 9.112 2.598 16.053 3.397 18.185.96 3.836.666 5.995.4 6.594l-11.191 17.186c-3.676 6.714-9.258 12.922-11.59 15.187-1.918 1.599-4.263 2.531-5.195 2.798-2.239.959-5.729.266-7.194-.2Z"/><path fill="#8C7575" d="M97.518 139.319c-25.579 1.438-41.166-8.926-45.762-14.388-2.558-5.276-2.664-10.258-2.398-11.99 1.12 1.119 2.332 2.265 3.397 3.997-1.798-10.791-8.06-18.984-12.19-22.781.64-1.919 5.995-8.793 9.792-9.592.8 2.718.733 4.463.6 4.996 13.269-23.34 16.32-28.377 16.186-27.577 6.994 1.399-1.998 14.787-4.996 21.182 11.191-2.398 19.318-17.185 21.982-23.38 3.357 6.554.266 20.116-1.399 24.779 15.187.16 32.04-18.851 38.568-28.376 1.598 2.398 2.597 1.598 1.199 10.59-1.439 3.518-1.999 4.264-1.599 4.597 5.116-2.398 6.728-2.798 7.194-2.798-1.759 3.198-2.531 8.793-2.998 11.39 2.201 0 3.229-.257 3.77-.392l.027-.007c.8 9.112 2.598 16.053 3.397 18.185.96 3.836.666 5.995.4 6.594l-11.191 17.186c-3.676 6.714-9.258 12.922-11.59 15.187-1.918 1.599-4.263 2.531-5.195 2.798-2.239.959-5.729.266-7.194-.2Z"/><path fill="#8C7575" d="M97.518 139.319c-25.579 1.438-41.166-8.926-45.762-14.388-2.558-5.276-2.664-10.258-2.398-11.99 1.12 1.119 2.332 2.265 3.397 3.997-1.798-10.791-8.06-18.984-12.19-22.781.64-1.919 5.995-8.793 9.792-9.592.8 2.718.733 4.463.6 4.996 13.269-23.34 16.32-28.377 16.186-27.577 6.994 1.399-1.998 14.787-4.996 21.182 11.191-2.398 19.318-17.185 21.982-23.38 3.357 6.554.266 20.116-1.399 24.779 15.187.16 32.04-18.851 38.568-28.376 1.598 2.398 2.597 1.598 1.199 10.59-1.439 3.518-1.999 4.264-1.599 4.597 5.116-2.398 6.728-2.798 7.194-2.798-1.759 3.198-2.531 8.793-2.998 11.39 2.201 0 3.229-.257 3.77-.392l.027-.007c.8 9.112 2.598 16.053 3.397 18.185.96 3.836.666 5.995.4 6.594l-11.191 17.186c-3.676 6.714-9.258 12.922-11.59 15.187-1.918 1.599-4.263 2.531-5.195 2.798-2.239.959-5.729.266-7.194-.2Z"/><path stroke="#000" d="M97.518 139.319c-25.579 1.438-41.166-8.926-45.762-14.388-2.558-5.276-2.664-10.258-2.398-11.99 1.12 1.119 2.332 2.265 3.397 3.997-1.798-10.791-8.06-18.984-12.19-22.781.64-1.919 5.995-8.793 9.792-9.592.8 2.718.733 4.463.6 4.996 13.269-23.34 16.32-28.377 16.186-27.577 6.994 1.399-1.998 14.787-4.996 21.182 11.191-2.398 19.318-17.185 21.982-23.38 3.357 6.554.266 20.116-1.399 24.779 15.187.16 32.04-18.851 38.568-28.376 1.598 2.398 2.597 1.598 1.199 10.59-1.439 3.518-1.999 4.264-1.599 4.597 5.116-2.398 6.728-2.798 7.194-2.798-1.759 3.198-2.531 8.793-2.998 11.39 2.201 0 3.229-.257 3.77-.392l.027-.007c.8 9.112 2.598 16.053 3.397 18.185.96 3.836.666 5.995.4 6.594l-11.191 17.186c-3.676 6.714-9.258 12.922-11.59 15.187-1.918 1.599-4.263 2.531-5.195 2.798-2.239.959-5.729.266-7.194-.2Z"/><path fill="#D9D9D9" fill-rule="evenodd" d="M53.956 93.757c1.332 2.998 5.075 8.953 9.392 8.793 6.86-.4 20.782-2.878 21.582-9.592-.067-3.397-1.479-11.83-3.397-16.786-3.597-.533-13.51.16-27.577 5.595-.467 2.531-1.12 8.473 0 11.99Zm25.778-10.99c1.599-5.916-3.464-6.195-6.195-5.596-2.717.858-4.463 3.022-4.996 3.997-4.316 5.115-2.997 9.991-1.798 11.79 5.196.4 10.99-2.798 12.99-10.192Z" clip-rule="evenodd"/><path fill="#852323" d="M73.54 77.171c2.73-.6 7.793-.32 6.194 5.595-1.998 7.394-7.793 10.591-12.989 10.192-1.199-1.799-2.518-6.675 1.798-11.79.533-.975 2.279-3.139 4.996-3.997Z"/><path stroke="#000" d="M53.956 93.757c1.332 2.998 5.075 8.953 9.392 8.793 6.86-.4 20.782-2.878 21.582-9.592-.067-3.397-1.479-11.83-3.397-16.786-3.597-.533-13.51.16-27.577 5.595-.467 2.531-1.12 8.473 0 11.99Zm25.778-10.99c1.599-5.916-3.464-6.195-6.195-5.596-2.717.858-4.463 3.022-4.996 3.997-4.316 5.115-2.997 9.991-1.798 11.79 5.196.4 10.99-2.798 12.99-10.192Z" clip-rule="evenodd"/><path stroke="#000" d="M73.54 77.171c2.73-.6 7.793-.32 6.194 5.595-1.998 7.394-7.793 10.591-12.989 10.192-1.199-1.799-2.518-6.675 1.798-11.79.533-.975 2.279-3.139 4.996-3.997Z"/><path fill="#000" stroke="#000" d="M71.341 99.153c-3.796-2.398-4.596-6.195-4.596-6.195 8.393 0 11.99-6.195 12.99-9.792.998-3.597-.8-5.395-1.8-5.995-.799-.48-3.263-.2-4.396 0 .48-.64 1.333-.6 1.999-.999 1.199-.2 5.662-.067 5.995.4 1.279 2.557 3.13 7.527 3.397 10.191v5.395c0 .8-.4 2.199-1.399 3.597-1.039 1.455-8.393 5.796-12.19 3.398Z"/><path fill="#EDC100" d="M79.076 94.357c-3.911-5.718-6.52-5.141-7.334-4.138C72.76 87.586 74 83 72.76 81.567c1.95 1.744 6.108 4.749 8.59 4.262.272-.128.536-.232.783-.312a2.161 2.161 0 0 1-.782.312c-2.27 1.07-5.04 3.824-2.275 8.528Z"/><path stroke="#000" d="M79.076 94.357c-3.911-5.718-6.52-5.141-7.334-4.138C72.76 87.586 74 83 72.76 81.567c2.173 1.944 7.09 5.455 9.373 3.95-2.31.752-6.153 3.573-3.056 8.84Z"/><path fill="#EE2A35" d="M111.905 69.178c-1.438.48-3.663 2.597-4.596 3.597-.13 1.324-.189 3.433-.023 5.93 1.101 8.58 4.604 1.487 6.218-3.133.067-2.331-.16-6.874-1.599-6.394Z"/><path fill="#000" d="M107.309 72.775c.933-1 3.158-3.118 4.596-3.597 1.439-.48 1.666 4.063 1.599 6.394-1.614 4.62-5.117 11.713-6.218 3.132.26 3.907 1.07 8.763 3.021 13.055 1.235.363 3.38.734 5.595.582.2-.183 1.599-2.78 2.198-5.778.6-2.998-.999-13.589-3.797-17.186-1.577-2.027-3.122-1.859-4.18-1.186a8.733 8.733 0 0 0-1.038.987 7.36 7.36 0 0 0-1.776 3.597Z"/><path fill="#fff" d="M121.098 90.56c.866-2.132 2.637-7.434 2.797-11.59-.399-1.999-1.438-6.275-2.398-7.394-.866-1.6-3.517-4.916-7.194-5.396-1.055.211-2.723.834-4.18 2.011 1.058-.673 2.603-.841 4.18 1.186 2.798 3.597 4.397 14.189 3.797 17.186-.599 2.997-1.998 5.595-2.198 5.778 1.847-.127 3.742-.618 5.196-1.781Z"/><path stroke="#000" d="M107.309 72.775c.933-1 3.158-3.118 4.596-3.597 1.439-.48 1.666 4.063 1.599 6.394-1.614 4.62-5.117 11.713-6.218 3.132m.023-5.93c-.13 1.325-.189 3.434-.023 5.93m.023-5.93a7.36 7.36 0 0 1 1.776-3.596m-1.799 9.526c.26 3.907 1.07 8.763 3.021 13.055 1.235.363 3.38.734 5.595.582m0 0c1.847-.127 3.742-.618 5.196-1.781.866-2.132 2.637-7.434 2.797-11.59-.399-1.999-1.438-6.275-2.398-7.394-.866-1.6-3.517-4.916-7.194-5.396-1.055.211-2.723.834-4.18 2.011m5.779 24.15c.2-.183 1.599-2.78 2.198-5.778.6-2.998-.999-13.589-3.797-17.186-1.577-2.027-3.122-1.859-4.18-1.186m-1.038.987a8.733 8.733 0 0 1 1.038-.987m-1.038.987a3.834 3.834 0 0 1 1.038-.987"/><path fill="#A67777" stroke="#000" d="M110.307 116.337c-.599.533-1.558 1.879-.599 2.998.399.067 1.359-.12 1.998-1.399.799-1.599-.4-2.598-1.399-1.599Z"/><path fill="#D6B1AF" fill-rule="evenodd" d="M51.757 125.53c-1.332-2.931-3.397-9.032-2.597-12.389.666.732 2.477 3.077 4.396 6.594-.4-5.062-3.397-17.066-12.19-24.58 1.399-2.397 5.196-7.753 9.192-9.99l.4 5.195c3.13-5.063 10.631-17.625 15.587-27.377.932.2 2.518 1.319 1.399 4.196-.8 3.064-3.278 10.791-6.795 17.186 6.129-1.599 19.104-8.193 21.982-21.782 1.865.866 4.476 6.515 0 22.182 6.728-.2 23.74-6.075 37.968-27.977.799.067 1.798 3.198-.6 15.187l7.994-3.397c-2.998 1.998-4.517 11.07-3.397 12.19 1.199 0 4.875-.6 9.991-2.998.333 1 .999 4.037.999 8.194.733-.467 2.718-2.878 4.796-8.793.133 1.132.2 4.596-.599 9.392 2.531-1.665 8.313-8.273 11.19-21.382.666.267 1.799 2.798.999 10.791 3.664-3.464 10.112-15.986 6.595-38.368l4.196 6.595c-.199-2.398-1.119-7.834-3.197-10.392-2.078-2.557-9.792-9.059-13.389-11.99l-9.192-8.592c-3.131-2.665-12.909-8.033-26.977-8.193l-7.594-2.198H95.72l-3.397-1.799-9.991.8-11.59-.8c-5.13-.133-17.266.04-24.78 1.799-.533.333-1.718 1.838-2.198 5.195-16.12 9.392-46.6 36.77-39.567 71.14-.466-.266-1.758-1.398-3.197-3.796.6 10.99 5.395 33.931 19.783 37.768-.333 3.597-.36 11.47 2.198 14.188-.333-2.865-.799-8.553 0-8.393.141.028.317.436.601 1.094 1.733 4.013 7.473 17.308 33.57 10.096l-5.395-4.596Zm-10.79-17.985c-.16 3.198 4.329 12.79 6.594 17.186-2.822.959-6.771 1.066-8.393.999-3.997.48-8.86-8.193-10.791-12.589-3.517-11.671 1.465-15.654 4.396-16.187 4.956-.48 7.527 6.861 8.193 10.591Z" clip-rule="evenodd"/><path fill="#8C7575" d="M47.56 124.731c-2.264-4.396-6.754-13.988-6.594-17.186-.666-3.73-3.237-11.07-8.193-10.59-2.93.532-7.913 4.515-4.396 16.186 1.932 4.396 6.794 13.069 10.79 12.589 1.623.067 5.572-.04 8.394-.999Z"/><path stroke="#000" d="M51.757 125.53c-1.332-2.931-3.397-9.032-2.597-12.389.666.732 2.477 3.077 4.396 6.594-.4-5.062-3.397-17.066-12.19-24.58 1.399-2.397 5.196-7.753 9.192-9.99l.4 5.195c3.13-5.063 10.631-17.625 15.587-27.377.932.2 2.518 1.319 1.399 4.196-.8 3.064-3.278 10.791-6.795 17.186 6.129-1.599 19.104-8.193 21.982-21.782 1.865.866 4.476 6.515 0 22.182 6.728-.2 23.74-6.075 37.968-27.977.799.067 1.798 3.198-.6 15.187l7.994-3.397c-2.998 1.998-4.517 11.07-3.397 12.19 1.199 0 4.875-.6 9.991-2.998.333 1 .999 4.037.999 8.194.733-.467 2.718-2.878 4.796-8.793.133 1.132.2 4.596-.599 9.392 2.531-1.665 8.313-8.273 11.19-21.382.666.267 1.799 2.798.999 10.791 3.664-3.464 10.112-15.986 6.595-38.368l4.196 6.595c-.199-2.398-1.119-7.834-3.197-10.392-2.078-2.557-9.792-9.059-13.389-11.99l-9.192-8.592c-3.131-2.665-12.909-8.033-26.977-8.193l-7.594-2.198H95.72l-3.397-1.799-9.991.8-11.59-.8c-5.13-.133-17.266.04-24.78 1.799-.533.333-1.718 1.838-2.198 5.195-16.12 9.392-46.6 36.77-39.567 71.14-.466-.266-1.758-1.398-3.197-3.796.6 10.99 5.395 33.931 19.783 37.768-.333 3.597-.36 11.47 2.198 14.188-.333-2.865-.799-8.553 0-8.393.141.028.317.436.601 1.094 1.733 4.013 7.473 17.308 33.57 10.096l-5.395-4.596Zm0 0c-.2 1.998.4 3.531.4 3.597-.333.2-1.719-.4-4.596-4.396m0 0c-2.265-4.396-6.755-13.988-6.595-17.186-.666-3.73-3.237-11.07-8.193-10.59-2.93.532-7.913 4.515-4.396 16.186 1.932 4.396 6.794 13.069 10.79 12.589 1.623.067 5.572-.04 8.394-.999Z"/><path fill="#009736" d="M113.421 85.165c-2.407-5.003-4.012-4.499-4.513-3.621.598-2.2 1.506-6.168.715-7.39A7.66 7.66 0 0 1 109.5 74a.918.918 0 0 1 .123.153c1.404 1.727 4.514 4.625 5.877 3.347-1.19 1.115-3.984 3.057-2.079 7.665Z"/><path stroke="#000" d="M113.421 85.165c-2.407-5.003-4.012-4.499-4.513-3.621.627-2.304 1.592-6.544.592-7.544 1.337 1.7 4.596 4.817 6 3.5-1.19 1.115-3.984 3.057-2.079 7.665Z"/></svg>