<svg width="266" height="344" viewBox="0 0 266 344" fill="none" xmlns="http://www.w3.org/2000/svg">
<g filter="url(#filter0_d_211_2)">
<path d="M37.1345 71.8496C37.5763 75.3882 36.5359 95.6655 35.4756 156.326L24.3479 162.08L12.9463 166.48L4 177.096L12.9463 181.645V305.392L37.1345 313.582L90.8124 329.96H163.377H217.055L241.243 321.771V181.645L250.4 177.096V170.203L234.185 162.08L226.237 158.291L217.055 153.741L211.753 146.765V84.8916L205.458 71.8496L195.186 46.3722L176.321 27.3697L163.377 18.1651L146.81 9.06605L131.568 3H118.645L102.078 9.06605L83.1915 18.1651L70.269 32.4203L60.2746 46.3722L48.8289 57.4933L37.1345 71.8496Z" stroke="#B69875" stroke-width="5"/>
<path d="M36.8033 149.192C77.1252 136.018 126.819 137.767 145.153 137.363H179.613L214.073 149.192M7.3136 178.309L64.6363 161.93H103.072H134.881H163.046H193.529L223.019 168.906L244.041 179.342M163.046 219.255V317.221H103.072V219.255M163.046 219.255L155.425 197.113L145.153 188.924L131.237 184.071L119.64 188.924L112.019 197.113L103.072 219.255M163.046 219.255L170.916 204.089L179.613 197.113L193.529 204.089L200.156 219.255V310.245M103.072 219.255L96.7767 204.089L89.1558 197.113H80.2095L72.2572 204.089L64.6363 219.255V310.245" stroke="#B69875" stroke-width="3"/>
<path d="M121.631 206.248C127.04 206.248 133.64 205.258 138.784 207.071C143.885 208.869 147.361 214.595 150.791 218.473C153.447 221.476 153.65 224.807 153.65 228.464" stroke="#F89017" stroke-width="3" stroke-linecap="square" stroke-dasharray="8 8"/>
<path d="M110.826 250.42C107.241 237.839 106.312 232.066 113.37 220.973C118.573 212.795 129.267 216.693 136.579 220.973C145.363 226.115 152.476 236.545 152.476 246.697C152.476 254.719 149.614 258.543 145.799 262.266" stroke="#F89017" stroke-width="3" stroke-linecap="square" stroke-dasharray="8 8"/>
<path d="M122.763 298.216C113.743 282.345 108.516 265.41 117.891 249.838C121.355 244.084 126.899 240.117 133.646 242.197" stroke="#F89017" stroke-width="3" stroke-linecap="square" stroke-dasharray="8 8"/>
<path d="M141.348 298.144C131.822 289.937 117.024 271.021 125.769 258.882" stroke="#F89017" stroke-width="3" stroke-linecap="square" stroke-dasharray="8 8"/>
<path d="M137.215 257.528C135.943 265.313 137.32 275.96 144.218 282.239C150.697 288.137 154.333 282.239 157.339 277.583" stroke="#F89017" stroke-width="3" stroke-linecap="square" stroke-dasharray="8 8"/>
</g>
<defs>
<filter id="filter0_d_211_2" x="0.0568848" y="0.5" width="265.843" height="342.96" filterUnits="userSpaceOnUse" color-interpolation-filters="sRGB">
<feFlood flood-opacity="0" result="BackgroundImageFix"/>
<feColorMatrix in="SourceAlpha" type="matrix" values="0 0 0 0 0 0 0 0 0 0 0 0 0 0 0 0 0 0 127 0" result="hardAlpha"/>
<feOffset dx="8" dy="6"/>
<feGaussianBlur stdDeviation="2.5"/>
<feComposite in2="hardAlpha" operator="out"/>
<feColorMatrix type="matrix" values="0 0 0 0 0.946042 0 0 0 0 0.128958 0 0 0 0 0.128959 0 0 0 0.25 0"/>
<feBlend mode="lighten" in2="BackgroundImageFix" result="effect1_dropShadow_211_2"/>
<feBlend mode="normal" in="SourceGraphic" in2="effect1_dropShadow_211_2" result="shape"/>
</filter>
</defs>
</svg>
